<?xml version="1.0" standalone="no"?>
<!DOCTYPE svg PUBLIC "-//W3C//DTD SVG 20010904//EN"
 "http://www.w3.org/TR/2001/REC-SVG-20010904/DTD/svg10.dtd">
<svg version="1.0" xmlns="http://www.w3.org/2000/svg"
 width="50.000000pt" height="50.000000pt" viewBox="0 0 50.000000 50.000000"
 preserveAspectRatio="xMidYMid meet">

<g transform="translate(0.000000,50.000000) scale(0.100000,-0.100000)"
fill="#000000" stroke="none">
<path d="M427 471 c-2 -11 -36 -35 -78 -57 -62 -33 -77 -46 -94 -81 -14 -30
-24 -41 -35 -36 -64 25 -90 27 -117 7 -37 -28 -92 -131 -99 -187 -12 -83 25
-129 89 -113 13 3 50 24 83 46 32 22 66 40 74 40 8 0 42 -18 74 -40 33 -22 70
-43 83 -46 64 -16 101 30 89 113 -7 56 -62 159 -99 187 -28 20 -56 18 -121 -9
-16 -7 -17 -5 -11 16 12 39 36 60 102 90 56 25 83 50 83 78 0 18 -17 12 -23
-8z m-226 -188 c46 -17 51 -17 103 1 30 10 61 16 70 13 25 -10 75 -87 91 -140
42 -140 -15 -176 -135 -87 -31 23 -65 40 -80 40 -15 0 -49 -17 -80 -40 -65
-49 -117 -61 -137 -34 -30 39 3 163 61 232 32 37 41 38 107 15z"/>
<path d="M354 219 c-10 -17 13 -36 27 -22 12 12 4 33 -11 33 -5 0 -12 -5 -16
-11z"/>
<path d="M120 205 c0 -8 -7 -15 -15 -15 -8 0 -15 -7 -15 -15 0 -8 7 -15 15
-15 8 0 15 -7 15 -15 0 -8 7 -15 15 -15 8 0 15 7 15 15 0 8 7 15 15 15 8 0 15
7 15 15 0 8 -7 15 -15 15 -8 0 -15 7 -15 15 0 8 -7 15 -15 15 -8 0 -15 -7 -15
-15z"/>
<path d="M314 179 c-10 -17 13 -36 27 -22 12 12 4 33 -11 33 -5 0 -12 -5 -16
-11z"/>
<path d="M394 179 c-10 -17 13 -36 27 -22 12 12 4 33 -11 33 -5 0 -12 -5 -16
-11z"/>
<path d="M354 139 c-10 -17 13 -36 27 -22 12 12 4 33 -11 33 -5 0 -12 -5 -16
-11z"/>
</g>
</svg>
